<svg width="30" height="30" viewBox="0 0 30 30" fill="none" xmlns="http://www.w3.org/2000/svg">
<rect width="30" height="30" rx="15" fill="#314386"/>
<g clip-path="url(#clip0_150_1144)">
<path d="M23.624 10.874C23.417 10.136 22.807 9.555 22.032 9.358C20.63 9 15 9 15 9C15 9 9.371 9 7.968 9.358C7.193 9.555 6.583 10.136 6.376 10.874C6 12.21 6 15 6 15C6 15 6 17.79 6.376 19.126C6.583 19.864 7.193 20.445 7.968 20.642C9.37 21 15 21 15 21C15 21 20.629 21 22.032 20.642C22.807 20.445 23.417 19.864 23.624 19.126C24 17.79 24 15 24 15C24 15 24 12.21 23.624 10.874ZM13 12L19 15L13 18V12Z" fill="#F4F4F4"/>
</g>
<defs>
<clipPath id="clip0_150_1144">
<rect width="24" height="24" fill="white" transform="translate(3 3)"/>
</clipPath>
</defs>
</svg>
